<?xml version="1.0" encoding="UTF-8" standalone="no"?>
<!DOCTYPE svg PUBLIC "-//W3C//DTD SVG 1.1//EN" "http://www.w3.org/Graphics/SVG/1.1/DTD/svg11.dtd">
<svg xmlns="http://www.w3.org/2000/svg" version="1.1" viewBox="0.00 0.00 297.00 29.00">
<path fill="#5F9DF7" d="
  M 14.95 4.63
  Q 19.79 4.52 24.58 4.52
  Q 143.77 4.48 262.83 4.63
  Q 277.97 4.65 293.82 5.02
  Q 294.42 5.04 294.80 5.51
  Q 295.26 6.09 295.28 6.84
  A 0.84 0.84 0.0 0 1 294.44 7.70
  Q 192.00 7.84 95.75 7.80
  Q 56.94 7.78 31.75 8.05
  C 27.54 8.09 20.72 8.07 15.33 7.58
  Q 10.26 7.13 4.96 8.25
  A 0.39 0.38 8.3 0 1 4.54 7.69
  Q 6.61 3.97 10.08 4.41
  Q 12.28 4.69 14.95 4.63
  Z"
/>
<path fill="#5F9DF7" d="
  M 49.67 11.01
  L 64.34 21.84
  A 0.63 0.63 0.0 0 1 63.97 22.98
  L 41.84 22.99
  A 0.63 0.63 0.0 0 1 41.45 22.86
  L 27.15 11.78
  A 0.63 0.63 0.0 0 1 27.54 10.65
  L 49.31 10.89
  A 0.63 0.63 0.0 0 1 49.67 11.01
  Z"
/>
<path fill="#5F9DF7" d="
  M 55.11 10.88
  L 92.31 11.18
  A 0.60 0.60 0.0 0 1 92.67 11.30
  L 106.54 21.92
  A 0.60 0.60 0.0 0 1 106.18 23.00
  L 68.98 22.99
  A 0.60 0.60 0.0 0 1 68.61 22.86
  L 54.73 11.96
  A 0.60 0.60 0.0 0 1 55.11 10.88
  Z
  M 63.02 13.22
  A 0.69 0.69 0.0 0 0 62.61 14.45
  L 70.31 20.45
  A 0.69 0.69 0.0 0 0 70.74 20.60
  L 98.01 20.51
  A 0.69 0.69 0.0 0 0 98.45 19.28
  L 90.93 13.07
  A 0.69 0.69 0.0 0 0 90.49 12.91
  L 63.02 13.22
  Z"
/>
<path fill="#5F9DF7" d="
  M 97.00 10.96
  L 126.31 10.93
  A 0.43 0.43 0.0 0 1 126.56 11.02
  L 141.56 22.18
  A 0.43 0.43 0.0 0 1 141.30 22.96
  L 111.71 22.94
  A 0.43 0.43 0.0 0 1 111.46 22.85
  L 96.74 11.73
  A 0.43 0.43 0.0 0 1 97.00 10.96
  Z"
/>
<path fill="#5F9DF7" d="
  M 297.00 12.15
  L 297.00 22.98
  Q 222.75 23.03 148.50 22.99
  Q 146.03 22.99 144.01 21.51
  Q 137.49 16.73 131.38 11.76
  Q 130.44 11.00 131.65 10.99
  C 134.91 10.95 138.19 10.79 141.46 10.94
  Q 146.57 11.18 151.51 11.19
  Q 235.94 11.33 296.11 10.94
  Q 296.48 10.93 296.67 11.26
  Q 296.85 11.57 297.00 12.15
  Z
  M 144.53 13.16
  Q 142.17 13.17 139.59 13.80
  A 0.33 0.32 -31.4 0 0 139.45 14.36
  Q 142.47 16.86 145.14 19.14
  Q 146.68 20.44 148.89 20.45
  Q 215.23 20.69 287.47 20.30
  Q 290.14 20.28 293.05 20.16
  Q 294.01 20.12 294.07 19.17
  L 294.32 14.76
  Q 294.38 13.72 293.34 13.66
  Q 289.06 13.40 285.38 13.37
  Q 201.57 12.73 144.53 13.16
  Z"
/>
</svg>
